<?xml version="1.0" encoding="UTF-8"?>
<svg xmlns="http://www.w3.org/2000/svg" xmlns:xlink="http://www.w3.org/1999/xlink" width="37px" height="56px" viewBox="0 0 37 56" version="1.1">
<g id="surface1">
<path style=" stroke:none;fill-rule:nonzero;fill:rgb(27.843139%,43.921569%,29.803923%);fill-opacity:1;" d="M 37.027344 5.320312 C 37.027344 22.21875 37.027344 39.121094 37.027344 56.027344 C 28.703125 56.027344 20.375 56.027344 12.039062 56.019531 C 12.34375 55.832031 12.5 55.535156 12.636719 55.214844 C 12.875 55.34375 13.113281 55.367188 13.320312 55.195312 C 13.445312 55.09375 13.523438 54.941406 13.636719 54.824219 C 13.710938 54.75 13.804688 54.644531 13.898438 54.636719 C 14.246094 54.613281 14.433594 54.320312 14.714844 54.1875 C 14.722656 54.183594 14.730469 54.167969 14.738281 54.152344 C 14.804688 54.003906 14.878906 53.851562 14.933594 53.699219 C 14.953125 53.632812 14.929688 53.554688 14.925781 53.484375 C 14.882812 53.535156 14.84375 53.589844 14.796875 53.636719 C 14.734375 53.703125 14.671875 53.808594 14.597656 53.820312 C 14.527344 53.832031 14.492188 53.84375 14.449219 53.902344 C 14.339844 54.046875 14.21875 54.183594 14 54.128906 C 13.953125 54.117188 13.882812 54.160156 13.835938 54.195312 C 13.785156 54.230469 13.742188 54.285156 13.695312 54.328125 C 13.429688 54.566406 12.90625 54.53125 12.855469 54.121094 C 12.8125 53.792969 12.835938 53.457031 12.839844 53.125 C 12.839844 52.945312 12.859375 52.769531 12.871094 52.59375 C 12.855469 52.589844 12.839844 52.585938 12.824219 52.578125 C 12.804688 52.609375 12.773438 52.636719 12.761719 52.667969 C 12.691406 52.859375 12.617188 53.046875 12.554688 53.242188 C 12.511719 53.378906 12.460938 53.515625 12.449219 53.65625 C 12.429688 54.042969 12.429688 54.429688 12.417969 54.820312 C 12.402344 55.210938 12.253906 55.578125 11.742188 55.566406 C 11.808594 55.394531 11.902344 55.230469 11.929688 55.050781 C 11.980469 54.730469 11.996094 54.398438 12.023438 54.074219 C 12.050781 53.722656 12.074219 53.371094 12.097656 53.019531 C 12.097656 52.988281 12.078125 52.953125 12.058594 52.898438 C 12.023438 52.945312 12.003906 52.964844 11.992188 52.988281 C 11.808594 53.375 11.710938 53.789062 11.683594 54.214844 C 11.664062 54.535156 11.671875 54.855469 11.652344 55.175781 C 11.640625 55.328125 11.632812 55.492188 11.472656 55.589844 C 11.441406 55.609375 11.425781 55.699219 11.441406 55.738281 C 11.492188 55.839844 11.5625 55.933594 11.625 56.027344 C 7.761719 56.027344 3.894531 56.027344 0.0273438 56.027344 C 0.0273438 39.097656 0.0273438 22.164062 0.0390625 5.226562 C 0.0703125 5.738281 0.109375 6.257812 0.226562 6.761719 C 0.289062 7.03125 0.351562 7.300781 0.59375 7.492188 C 0.953125 7.773438 1.296875 8.070312 1.648438 8.363281 C 1.96875 8.632812 2.285156 8.90625 2.609375 9.171875 C 3.070312 9.550781 3.539062 9.929688 4.003906 10.304688 C 4.386719 10.617188 4.769531 10.929688 5.152344 11.238281 C 5.523438 11.539062 5.902344 11.835938 6.277344 12.136719 C 6.75 12.515625 7.222656 12.90625 7.695312 13.285156 C 8.152344 13.652344 8.613281 14.011719 9.074219 14.371094 C 9.539062 14.738281 9.996094 15.109375 10.464844 15.46875 C 10.851562 15.761719 10.808594 16.300781 10.496094 16.554688 C 10.171875 16.8125 9.839844 16.789062 9.523438 16.546875 C 9.011719 16.160156 8.511719 15.753906 8.003906 15.359375 C 7.214844 14.75 6.417969 14.144531 5.625 13.535156 C 5.226562 13.226562 4.824219 12.914062 4.421875 12.605469 C 4.035156 12.308594 3.644531 12.015625 3.257812 11.722656 C 2.835938 11.398438 2.417969 11.074219 2 10.75 C 1.511719 10.371094 1.023438 9.992188 0.53125 9.613281 C 0.425781 9.53125 0.3125 9.453125 0.171875 9.355469 C 0.152344 9.789062 0.113281 10.1875 0.117188 10.585938 C 0.121094 11.238281 0.140625 11.894531 0.171875 12.550781 C 0.191406 12.957031 0.25 13.359375 0.28125 13.765625 C 0.3125 14.160156 0.457031 14.484375 0.78125 14.742188 C 1.160156 15.039062 1.5 15.375 1.867188 15.6875 C 2.226562 16 2.59375 16.300781 2.957031 16.605469 C 3.273438 16.871094 3.589844 17.140625 3.910156 17.402344 C 4.273438 17.707031 4.644531 18.003906 5.011719 18.304688 C 5.421875 18.636719 5.835938 18.96875 6.246094 19.304688 C 6.464844 19.484375 6.621094 19.691406 6.59375 19.996094 C 6.566406 20.265625 6.429688 20.464844 6.191406 20.570312 C 5.9375 20.683594 5.675781 20.679688 5.441406 20.492188 C 5.027344 20.164062 4.605469 19.839844 4.1875 19.515625 C 3.75 19.179688 3.316406 18.851562 2.878906 18.515625 C 2.488281 18.214844 2.097656 17.914062 1.707031 17.617188 C 1.277344 17.289062 0.847656 16.964844 0.417969 16.640625 C 0.347656 16.585938 0.273438 16.535156 0.175781 16.464844 C 0.144531 16.941406 0.0976562 17.378906 0.0898438 17.820312 C 0.0820312 18.355469 0.09375 18.890625 0.117188 19.425781 C 0.128906 19.785156 0.152344 20.148438 0.203125 20.503906 C 0.265625 20.953125 0.359375 21.402344 0.445312 21.847656 C 0.460938 21.914062 0.5 21.988281 0.554688 22.03125 C 0.992188 22.402344 1.421875 22.777344 1.878906 23.121094 C 2.65625 23.707031 3.445312 24.273438 4.230469 24.84375 C 4.816406 25.261719 5.417969 25.664062 6 26.089844 C 6.632812 26.550781 7.257812 27.03125 7.882812 27.507812 C 7.96875 27.574219 8.070312 27.679688 8.082031 27.773438 C 8.117188 28.058594 8.117188 28.347656 8.117188 28.636719 C 8.117188 37.503906 8.117188 46.371094 8.121094 55.238281 C 8.121094 55.382812 8.167969 55.539062 8.230469 55.671875 C 8.328125 55.890625 8.605469 56.011719 8.84375 55.96875 C 9.066406 55.929688 9.289062 55.722656 9.335938 55.527344 C 9.496094 54.835938 9.65625 54.144531 9.832031 53.457031 C 9.992188 52.820312 10.171875 52.191406 10.351562 51.558594 C 10.585938 50.753906 10.824219 49.949219 11.074219 49.144531 C 11.246094 48.601562 11.433594 48.058594 11.625 47.519531 C 11.882812 46.796875 12.132812 46.070312 12.421875 45.359375 C 12.804688 44.429688 13.21875 43.507812 13.636719 42.589844 C 13.871094 42.074219 14.136719 41.566406 14.402344 41.066406 C 14.828125 40.273438 15.296875 39.507812 15.816406 38.769531 C 16.269531 38.125 16.761719 37.515625 17.3125 36.953125 C 17.554688 36.703125 17.820312 36.472656 18.085938 36.242188 C 18.226562 36.117188 18.386719 36.011719 18.535156 35.898438 C 18.753906 36.070312 18.960938 36.222656 19.15625 36.394531 C 19.609375 36.789062 20.035156 37.207031 20.398438 37.679688 C 20.816406 38.226562 21.230469 38.773438 21.621094 39.335938 C 22.304688 40.324219 22.863281 41.386719 23.378906 42.464844 C 23.765625 43.265625 24.113281 44.085938 24.449219 44.90625 C 24.789062 45.742188 25.109375 46.585938 25.410156 47.433594 C 25.683594 48.1875 25.925781 48.957031 26.164062 49.722656 C 26.390625 50.445312 26.601562 51.171875 26.808594 51.898438 C 26.964844 52.453125 27.113281 53.011719 27.253906 53.570312 C 27.417969 54.21875 27.570312 54.867188 27.722656 55.519531 C 27.8125 55.910156 28.347656 56.117188 28.660156 55.867188 C 28.84375 55.71875 28.941406 55.53125 28.941406 55.285156 C 28.9375 48.234375 28.9375 41.183594 28.9375 34.132812 C 28.941406 32.03125 28.957031 29.925781 28.96875 27.824219 C 28.96875 27.753906 29.011719 27.671875 29.058594 27.621094 C 29.140625 27.527344 29.238281 27.445312 29.339844 27.371094 C 29.71875 27.082031 30.09375 26.796875 30.480469 26.515625 C 31.214844 25.988281 31.953125 25.464844 32.691406 24.9375 C 33.265625 24.53125 33.84375 24.132812 34.40625 23.714844 C 35.117188 23.1875 35.835938 22.671875 36.476562 22.0625 C 36.539062 22 36.609375 21.921875 36.625 21.839844 C 36.710938 21.410156 36.804688 20.980469 36.855469 20.546875 C 36.914062 20.011719 36.953125 19.472656 36.964844 18.933594 C 36.980469 18.339844 36.957031 17.738281 36.941406 17.144531 C 36.933594 16.929688 36.898438 16.714844 36.871094 16.46875 C 36.621094 16.664062 36.398438 16.839844 36.167969 17.015625 C 35.582031 17.460938 34.988281 17.90625 34.402344 18.351562 C 33.875 18.75 33.351562 19.148438 32.828125 19.550781 C 32.488281 19.8125 32.15625 20.082031 31.820312 20.34375 C 31.625 20.496094 31.441406 20.660156 31.160156 20.640625 C 30.851562 20.617188 30.640625 20.476562 30.519531 20.203125 C 30.40625 19.949219 30.457031 19.632812 30.667969 19.449219 C 31.015625 19.140625 31.378906 18.847656 31.738281 18.554688 C 32.375 18.03125 33.015625 17.515625 33.648438 16.992188 C 34.132812 16.589844 34.609375 16.179688 35.085938 15.765625 C 35.570312 15.347656 36.050781 14.929688 36.527344 14.503906 C 36.585938 14.457031 36.640625 14.382812 36.652344 14.3125 C 36.726562 13.945312 36.816406 13.582031 36.851562 13.210938 C 36.902344 12.636719 36.929688 12.054688 36.9375 11.476562 C 36.949219 10.851562 36.925781 10.222656 36.914062 9.59375 C 36.910156 9.523438 36.886719 9.453125 36.871094 9.371094 C 36.824219 9.402344 36.789062 9.414062 36.757812 9.4375 C 36.347656 9.757812 35.941406 10.082031 35.527344 10.398438 C 35.085938 10.742188 34.640625 11.074219 34.195312 11.414062 C 33.542969 11.914062 32.894531 12.421875 32.242188 12.921875 C 31.625 13.398438 31.003906 13.871094 30.382812 14.347656 C 29.898438 14.722656 29.414062 15.097656 28.929688 15.472656 C 28.503906 15.804688 28.078125 16.132812 27.648438 16.464844 C 27.429688 16.632812 27.203125 16.785156 26.902344 16.714844 C 26.625 16.652344 26.429688 16.484375 26.355469 16.214844 C 26.28125 15.957031 26.316406 15.707031 26.539062 15.523438 C 26.835938 15.277344 27.136719 15.039062 27.441406 14.796875 C 27.84375 14.480469 28.25 14.171875 28.648438 13.851562 C 29.160156 13.441406 29.667969 13.027344 30.179688 12.617188 C 30.765625 12.148438 31.351562 11.683594 31.933594 11.214844 C 32.378906 10.855469 32.820312 10.488281 33.261719 10.125 C 33.777344 9.707031 34.300781 9.292969 34.8125 8.871094 C 35.363281 8.417969 35.90625 7.957031 36.453125 7.5 C 36.585938 7.386719 36.691406 7.257812 36.742188 7.089844 C 36.875 6.65625 36.953125 6.21875 36.972656 5.765625 C 36.980469 5.617188 37.007812 5.46875 37.027344 5.320312 M 22.199219 51.007812 C 22.203125 51.011719 22.203125 51.015625 22.207031 51.035156 C 22.1875 51.070312 22.167969 51.105469 22.160156 51.121094 C 22.050781 51.050781 21.949219 50.988281 21.847656 50.925781 C 21.78125 50.886719 21.726562 50.898438 21.6875 50.976562 C 21.597656 51.15625 21.496094 51.332031 21.410156 51.515625 C 21.394531 51.550781 21.417969 51.632812 21.453125 51.65625 C 21.546875 51.730469 21.65625 51.78125 21.761719 51.84375 C 21.828125 51.886719 21.890625 51.894531 21.941406 51.824219 C 22.007812 51.730469 22.074219 51.636719 22.148438 51.535156 C 22.222656 51.582031 22.304688 51.625 22.378906 51.679688 C 22.464844 51.742188 22.542969 51.726562 22.597656 51.648438 C 22.667969 51.550781 22.738281 51.449219 22.789062 51.339844 C 22.875 51.152344 22.816406 50.976562 22.644531 50.855469 C 22.570312 50.804688 22.496094 50.765625 22.421875 50.722656 C 22.542969 50.363281 22.46875 50.171875 22.152344 50.058594 C 22.109375 50.042969 22.015625 50.066406 21.996094 50.101562 C 21.894531 50.277344 21.804688 50.460938 21.71875 50.644531 C 21.707031 50.679688 21.730469 50.753906 21.757812 50.777344 C 21.863281 50.855469 21.972656 50.925781 22.085938 50.988281 C 22.113281 51.003906 22.152344 50.996094 22.199219 51.007812 M 17.039062 51.464844 C 16.800781 51.472656 16.5625 51.488281 16.324219 51.492188 C 15.21875 51.492188 14.113281 51.511719 13.015625 51.382812 C 12.632812 51.339844 12.257812 51.289062 11.894531 51.152344 C 11.796875 51.117188 11.710938 51.058594 11.597656 51.003906 C 11.890625 50.703125 12.21875 50.550781 12.589844 50.484375 C 12.878906 50.433594 13.171875 50.414062 13.417969 50.230469 C 13.601562 50.09375 13.636719 49.875 13.480469 49.707031 C 13.417969 49.636719 13.34375 49.578125 13.269531 49.523438 C 13.160156 49.445312 13.050781 49.457031 12.949219 49.550781 C 12.859375 49.640625 12.769531 49.730469 12.679688 49.816406 C 12.527344 49.96875 12.527344 49.96875 12.585938 50.164062 C 12.496094 50.203125 12.410156 50.246094 12.320312 50.28125 C 11.824219 50.480469 11.421875 50.792969 11.144531 51.246094 C 11.019531 51.453125 11.0625 51.761719 11.367188 51.832031 C 11.421875 51.84375 11.472656 51.867188 11.527344 51.882812 C 12.1875 52.039062 12.859375 52.144531 13.535156 52.15625 C 14.398438 52.175781 15.265625 52.148438 16.132812 52.132812 C 16.367188 52.128906 16.605469 52.078125 16.839844 52.054688 C 17.066406 52.039062 17.292969 52.03125 17.535156 52.019531 C 17.453125 52.21875 17.386719 52.398438 17.308594 52.578125 C 17.136719 52.980469 17.230469 53.414062 17.171875 53.828125 C 17.140625 54.0625 17.121094 54.296875 17.09375 54.53125 C 17.078125 54.660156 17.050781 54.792969 17.023438 54.960938 C 17.191406 54.882812 17.234375 54.761719 17.28125 54.652344 C 17.417969 54.332031 17.503906 54 17.515625 53.644531 C 17.535156 53.15625 17.589844 52.667969 17.621094 52.179688 C 17.632812 52.011719 17.660156 51.984375 17.832031 51.964844 C 18.109375 51.9375 18.386719 51.898438 18.664062 51.859375 C 19.007812 51.8125 19.355469 51.773438 19.699219 51.710938 C 19.929688 51.671875 20.15625 51.613281 20.375 51.539062 C 20.449219 51.515625 20.5 51.421875 20.5625 51.363281 C 20.476562 51.332031 20.390625 51.269531 20.304688 51.273438 C 19.824219 51.300781 19.347656 51.347656 18.863281 51.378906 C 18.265625 51.414062 17.667969 51.4375 17.039062 51.464844 M 23.164062 52.203125 C 23.367188 51.949219 23.578125 51.703125 23.765625 51.4375 C 23.90625 51.242188 23.988281 51.019531 23.984375 50.761719 C 23.179688 51.796875 22.179688 52.640625 21.261719 53.570312 C 21.246094 53.511719 21.238281 53.464844 21.246094 53.417969 C 21.304688 52.964844 21.363281 52.511719 21.421875 52.058594 C 21.425781 52.023438 21.398438 51.984375 21.386719 51.945312 C 21.363281 51.96875 21.324219 51.980469 21.3125 52.007812 C 21.152344 52.347656 21.074219 52.707031 21.019531 53.074219 C 20.945312 53.535156 20.863281 53.992188 20.8125 54.457031 C 20.78125 54.742188 20.773438 55.039062 20.804688 55.324219 C 20.820312 55.464844 20.929688 55.609375 21.03125 55.71875 C 21.226562 55.925781 21.617188 55.808594 21.792969 55.636719 C 22.0625 55.375 22.175781 55.027344 22.289062 54.683594 C 22.316406 54.597656 22.347656 54.558594 22.4375 54.570312 C 22.640625 54.59375 22.789062 54.527344 22.890625 54.34375 C 22.921875 54.289062 23.007812 54.265625 23.070312 54.238281 C 23.167969 54.191406 23.28125 54.164062 23.367188 54.101562 C 23.519531 53.992188 23.644531 53.84375 23.800781 53.746094 C 24.128906 53.546875 24.292969 53.242188 24.378906 52.898438 C 24.433594 52.671875 24.421875 52.429688 24.4375 52.195312 C 24.4375 52.167969 24.410156 52.136719 24.386719 52.089844 C 24.351562 52.15625 24.324219 52.195312 24.304688 52.234375 C 24.226562 52.394531 24.136719 52.546875 24.078125 52.710938 C 24.042969 52.804688 24.042969 52.914062 24.042969 53.015625 C 24.042969 53.132812 23.957031 53.277344 23.875 53.261719 C 23.777344 53.242188 23.761719 53.296875 23.738281 53.355469 C 23.695312 53.457031 23.648438 53.539062 23.511719 53.515625 C 23.488281 53.507812 23.453125 53.566406 23.417969 53.589844 C 23.34375 53.648438 23.257812 53.757812 23.199219 53.746094 C 23.039062 53.714844 22.929688 53.765625 22.839844 53.875 C 22.765625 53.964844 22.683594 53.988281 22.570312 53.984375 C 22.246094 53.976562 21.945312 53.902344 21.65625 53.738281 C 22.15625 53.230469 22.65625 52.722656 23.164062 52.203125 M 20.253906 55.03125 C 20.398438 54.648438 20.378906 54.382812 20.117188 54.175781 C 20.042969 54.113281 19.953125 54.070312 19.871094 54.019531 C 19.785156 53.964844 19.726562 53.992188 19.683594 54.078125 C 19.585938 54.269531 19.480469 54.457031 19.382812 54.644531 C 19.367188 54.675781 19.339844 54.730469 19.355469 54.746094 C 19.425781 54.835938 19.339844 54.886719 19.3125 54.953125 C 19.25 55.09375 19.171875 55.234375 19.132812 55.382812 C 19.09375 55.527344 19.125 55.679688 19.253906 55.773438 C 19.375 55.859375 19.519531 55.863281 19.652344 55.792969 C 19.960938 55.636719 20.121094 55.355469 20.253906 55.03125 M 21.171875 49.839844 C 20.867188 50.082031 20.53125 50.210938 20.132812 50.125 C 20.015625 50.101562 19.886719 50.082031 19.769531 50.101562 C 19.375 50.15625 19.074219 50.378906 18.816406 50.664062 C 18.769531 50.714844 18.75 50.789062 18.71875 50.851562 C 18.726562 50.859375 18.738281 50.867188 18.746094 50.878906 C 18.789062 50.867188 18.835938 50.863281 18.875 50.84375 C 19.121094 50.734375 19.375 50.71875 19.644531 50.753906 C 19.859375 50.785156 20.097656 50.796875 20.308594 50.742188 C 20.71875 50.636719 21.03125 50.367188 21.273438 50.027344 C 21.335938 49.941406 21.445312 49.875 21.390625 49.710938 C 21.316406 49.753906 21.253906 49.789062 21.171875 49.839844 M 25.878906 54.03125 C 25.753906 53.898438 25.628906 53.765625 25.507812 53.632812 C 25.46875 53.664062 25.453125 53.667969 25.445312 53.679688 C 25.339844 53.90625 25.230469 54.132812 25.132812 54.359375 C 25.121094 54.390625 25.148438 54.457031 25.179688 54.484375 C 25.289062 54.601562 25.410156 54.703125 25.519531 54.820312 C 25.59375 54.898438 25.601562 55.003906 25.535156 55.089844 C 25.449219 55.195312 25.347656 55.296875 25.246094 55.390625 C 25.128906 55.496094 25 55.589844 24.882812 55.695312 C 24.859375 55.714844 24.863281 55.765625 24.851562 55.800781 C 24.886719 55.800781 24.921875 55.8125 24.953125 55.804688 C 25.085938 55.765625 25.226562 55.730469 25.347656 55.667969 C 25.449219 55.621094 25.5625 55.554688 25.621094 55.464844 C 25.730469 55.300781 25.820312 55.117188 25.894531 54.933594 C 26.007812 54.644531 26.0625 54.34375 25.878906 54.03125 M 15.78125 55.621094 C 15.660156 55.730469 15.496094 55.792969 15.394531 55.976562 C 15.683594 55.953125 15.925781 55.894531 16.117188 55.734375 C 16.359375 55.523438 16.460938 55.222656 16.542969 54.921875 C 16.660156 54.507812 16.535156 54.164062 16.195312 53.898438 C 16.109375 53.832031 16.039062 53.820312 15.988281 53.941406 C 15.921875 54.101562 15.847656 54.261719 15.773438 54.421875 C 15.695312 54.597656 15.703125 54.613281 15.851562 54.734375 C 15.949219 54.816406 16.035156 54.914062 16.117188 55.011719 C 16.214844 55.128906 16.167969 55.238281 16.078125 55.332031 C 15.984375 55.425781 15.890625 55.515625 15.78125 55.621094 M 19.09375 53.972656 C 19.125 53.804688 19.160156 53.636719 19.175781 53.46875 C 19.21875 53.074219 19.253906 52.679688 19.289062 52.28125 C 19.300781 52.179688 19.308594 52.078125 19.316406 51.976562 C 19.304688 51.972656 19.289062 51.96875 19.273438 51.960938 C 19.253906 51.992188 19.226562 52.019531 19.207031 52.050781 C 18.953125 52.515625 18.832031 53.015625 18.804688 53.546875 C 18.789062 53.894531 18.722656 54.242188 18.675781 54.589844 C 18.660156 54.703125 18.632812 54.8125 18.613281 54.925781 C 18.632812 54.929688 18.65625 54.9375 18.675781 54.945312 C 18.90625 54.671875 19.019531 54.34375 19.09375 53.972656 M 24.636719 54.894531 C 24.695312 54.5 24.753906 54.109375 24.808594 53.714844 C 24.847656 53.410156 24.878906 53.101562 24.914062 52.796875 C 24.917969 52.757812 24.914062 52.71875 24.914062 52.640625 C 24.851562 52.6875 24.804688 52.707031 24.789062 52.742188 C 24.707031 52.933594 24.628906 53.125 24.550781 53.316406 C 24.386719 53.726562 24.453125 54.167969 24.382812 54.589844 C 24.335938 54.878906 24.285156 55.164062 24.238281 55.449219 C 24.230469 55.5 24.222656 55.550781 24.21875 55.597656 C 24.234375 55.605469 24.25 55.613281 24.265625 55.621094 C 24.308594 55.574219 24.363281 55.53125 24.390625 55.472656 C 24.476562 55.289062 24.554688 55.101562 24.636719 54.894531 M 15.53125 52.269531 C 15.46875 52.445312 15.386719 52.621094 15.339844 52.804688 C 15.292969 52.980469 15.265625 53.164062 15.25 53.34375 C 15.230469 53.621094 15.234375 53.902344 15.214844 54.179688 C 15.199219 54.394531 15.167969 54.609375 15.136719 54.824219 C 15.121094 54.9375 15.097656 55.050781 15.074219 55.183594 C 15.25 55.140625 15.277344 55.007812 15.324219 54.910156 C 15.511719 54.503906 15.570312 54.066406 15.582031 53.628906 C 15.597656 53.179688 15.570312 52.726562 15.664062 52.285156 C 15.667969 52.257812 15.640625 52.230469 15.628906 52.203125 C 15.601562 52.21875 15.570312 52.234375 15.53125 52.269531 M 17.847656 55.652344 C 17.902344 55.578125 17.972656 55.507812 18.007812 55.425781 C 18.203125 55.015625 18.273438 54.574219 18.359375 54.132812 C 18.375 54.035156 18.378906 53.929688 18.390625 53.828125 C 18.371094 53.820312 18.355469 53.8125 18.335938 53.800781 C 18.300781 53.84375 18.253906 53.875 18.238281 53.921875 C 18.1875 54.0625 18.15625 54.214844 18.101562 54.355469 C 18.007812 54.589844 17.941406 54.847656 17.796875 55.046875 C 17.648438 55.253906 17.421875 55.402344 17.230469 55.578125 C 17.144531 55.65625 17.050781 55.726562 16.972656 55.8125 C 16.921875 55.871094 16.941406 55.960938 17.035156 55.9375 C 17.304688 55.859375 17.566406 55.757812 17.847656 55.652344 M 17.824219 50.328125 C 17.753906 50.269531 17.6875 50.210938 17.613281 50.152344 C 17.542969 50.097656 17.492188 50.113281 17.445312 50.191406 C 17.335938 50.367188 17.21875 50.539062 17.101562 50.710938 C 17.054688 50.777344 17.0625 50.824219 17.125 50.875 C 17.222656 50.945312 17.3125 51.027344 17.410156 51.09375 C 17.445312 51.117188 17.5 51.132812 17.539062 51.121094 C 17.820312 51.042969 17.996094 50.582031 17.824219 50.328125 M 25.460938 51.066406 C 25.359375 50.960938 25.261719 50.855469 25.15625 50.757812 C 25.089844 50.695312 25.035156 50.730469 24.996094 50.792969 C 24.875 50.972656 24.753906 51.152344 24.644531 51.339844 C 24.625 51.367188 24.640625 51.4375 24.664062 51.460938 C 24.757812 51.542969 24.871094 51.605469 24.960938 51.6875 C 25.039062 51.765625 25.109375 51.746094 25.164062 51.679688 C 25.269531 51.554688 25.371094 51.421875 25.457031 51.28125 C 25.488281 51.234375 25.464844 51.152344 25.460938 51.066406 M 22.6875 51.820312 C 22.667969 51.882812 22.644531 51.945312 22.613281 52.027344 C 22.671875 52.015625 22.699219 52.019531 22.714844 52.003906 C 22.996094 51.710938 23.277344 51.414062 23.554688 51.113281 C 23.585938 51.078125 23.585938 51.019531 23.597656 50.972656 C 23.585938 50.964844 23.570312 50.953125 23.558594 50.945312 C 23.234375 51.195312 23 51.53125 22.6875 51.820312 Z M 22.6875 51.820312 "/>
<path style=" stroke:none;fill-rule:nonzero;fill:rgb(14.509805%,66.666669%,88.235295%);fill-opacity:1;" d="M 37.027344 5.308594 C 37.007812 5.46875 36.980469 5.617188 36.972656 5.765625 C 36.953125 6.21875 36.875 6.65625 36.742188 7.089844 C 36.691406 7.257812 36.585938 7.386719 36.453125 7.5 C 35.90625 7.957031 35.363281 8.417969 34.8125 8.871094 C 34.300781 9.292969 33.777344 9.707031 33.261719 10.125 C 32.820312 10.488281 32.378906 10.855469 31.933594 11.214844 C 31.351562 11.683594 30.765625 12.148438 30.179688 12.617188 C 29.667969 13.027344 29.160156 13.441406 28.648438 13.851562 C 28.25 14.171875 27.84375 14.480469 27.441406 14.796875 C 27.136719 15.039062 26.835938 15.277344 26.539062 15.523438 C 26.316406 15.707031 26.28125 15.957031 26.355469 16.214844 C 26.429688 16.484375 26.625 16.652344 26.902344 16.714844 C 27.203125 16.785156 27.429688 16.632812 27.648438 16.464844 C 28.078125 16.132812 28.503906 15.804688 28.929688 15.472656 C 29.414062 15.097656 29.898438 14.722656 30.382812 14.347656 C 31.003906 13.871094 31.625 13.398438 32.242188 12.921875 C 32.894531 12.421875 33.542969 11.914062 34.195312 11.414062 C 34.640625 11.074219 35.085938 10.742188 35.527344 10.398438 C 35.941406 10.082031 36.347656 9.757812 36.757812 9.4375 C 36.789062 9.414062 36.824219 9.402344 36.871094 9.371094 C 36.886719 9.453125 36.910156 9.523438 36.914062 9.59375 C 36.925781 10.222656 36.949219 10.851562 36.9375 11.476562 C 36.929688 12.054688 36.902344 12.636719 36.851562 13.210938 C 36.816406 13.582031 36.726562 13.945312 36.652344 14.3125 C 36.640625 14.382812 36.585938 14.457031 36.527344 14.503906 C 36.050781 14.929688 35.570312 15.347656 35.085938 15.765625 C 34.609375 16.179688 34.132812 16.589844 33.648438 16.992188 C 33.015625 17.515625 32.375 18.03125 31.738281 18.554688 C 31.378906 18.847656 31.015625 19.140625 30.667969 19.449219 C 30.457031 19.632812 30.40625 19.949219 30.519531 20.203125 C 30.640625 20.476562 30.851562 20.617188 31.160156 20.640625 C 31.441406 20.660156 31.625 20.496094 31.820312 20.34375 C 32.15625 20.082031 32.488281 19.8125 32.828125 19.550781 C 33.351562 19.148438 33.875 18.75 34.402344 18.351562 C 34.988281 17.90625 35.582031 17.460938 36.167969 17.015625 C 36.398438 16.839844 36.621094 16.664062 36.871094 16.46875 C 36.898438 16.714844 36.933594 16.929688 36.941406 17.144531 C 36.957031 17.738281 36.980469 18.339844 36.964844 18.933594 C 36.953125 19.472656 36.914062 20.011719 36.855469 20.546875 C 36.804688 20.980469 36.710938 21.410156 36.625 21.839844 C 36.609375 21.921875 36.539062 22 36.476562 22.0625 C 35.835938 22.671875 35.117188 23.1875 34.40625 23.714844 C 33.84375 24.132812 33.265625 24.53125 32.691406 24.9375 C 31.953125 25.464844 31.214844 25.988281 30.480469 26.515625 C 30.09375 26.796875 29.71875 27.082031 29.339844 27.371094 C 29.238281 27.445312 29.140625 27.527344 29.058594 27.621094 C 29.011719 27.671875 28.96875 27.753906 28.96875 27.824219 C 28.957031 29.925781 28.941406 32.03125 28.9375 34.132812 C 28.9375 41.183594 28.9375 48.234375 28.941406 55.285156 C 28.941406 55.53125 28.84375 55.71875 28.660156 55.867188 C 28.347656 56.117188 27.8125 55.910156 27.722656 55.519531 C 27.570312 54.867188 27.417969 54.21875 27.253906 53.570312 C 27.113281 53.011719 26.964844 52.453125 26.808594 51.898438 C 26.601562 51.171875 26.390625 50.445312 26.164062 49.722656 C 25.925781 48.957031 25.683594 48.1875 25.410156 47.433594 C 25.109375 46.585938 24.789062 45.742188 24.449219 44.90625 C 24.113281 44.085938 23.765625 43.265625 23.378906 42.464844 C 22.863281 41.386719 22.304688 40.324219 21.621094 39.335938 C 21.230469 38.773438 20.816406 38.226562 20.398438 37.679688 C 20.035156 37.207031 19.609375 36.789062 19.15625 36.394531 C 18.960938 36.222656 18.753906 36.070312 18.535156 35.898438 C 18.386719 36.011719 18.226562 36.117188 18.085938 36.242188 C 17.820312 36.472656 17.554688 36.703125 17.3125 36.953125 C 16.761719 37.515625 16.269531 38.125 15.816406 38.769531 C 15.296875 39.507812 14.828125 40.273438 14.402344 41.066406 C 14.136719 41.566406 13.871094 42.074219 13.636719 42.589844 C 13.21875 43.507812 12.804688 44.429688 12.421875 45.359375 C 12.132812 46.070312 11.882812 46.796875 11.625 47.519531 C 11.433594 48.058594 11.246094 48.601562 11.074219 49.144531 C 10.824219 49.949219 10.585938 50.753906 10.351562 51.558594 C 10.171875 52.191406 9.992188 52.820312 9.832031 53.457031 C 9.65625 54.144531 9.496094 54.835938 9.335938 55.527344 C 9.289062 55.722656 9.066406 55.929688 8.84375 55.96875 C 8.605469 56.011719 8.328125 55.890625 8.230469 55.671875 C 8.167969 55.539062 8.121094 55.382812 8.121094 55.238281 C 8.117188 46.371094 8.117188 37.503906 8.117188 28.636719 C 8.117188 28.347656 8.117188 28.058594 8.082031 27.773438 C 8.070312 27.679688 7.96875 27.574219 7.882812 27.507812 C 7.257812 27.03125 6.632812 26.550781 6 26.089844 C 5.417969 25.664062 4.816406 25.261719 4.230469 24.84375 C 3.445312 24.273438 2.65625 23.707031 1.878906 23.121094 C 1.421875 22.777344 0.992188 22.402344 0.554688 22.03125 C 0.5 21.988281 0.460938 21.914062 0.445312 21.847656 C 0.359375 21.402344 0.265625 20.953125 0.203125 20.503906 C 0.152344 20.148438 0.128906 19.785156 0.117188 19.425781 C 0.09375 18.890625 0.0820312 18.355469 0.0898438 17.820312 C 0.0976562 17.378906 0.144531 16.941406 0.175781 16.464844 C 0.273438 16.535156 0.347656 16.585938 0.417969 16.640625 C 0.847656 16.964844 1.277344 17.289062 1.707031 17.617188 C 2.097656 17.914062 2.488281 18.214844 2.878906 18.515625 C 3.316406 18.851562 3.75 19.179688 4.1875 19.515625 C 4.605469 19.839844 5.027344 20.164062 5.441406 20.492188 C 5.675781 20.679688 5.9375 20.683594 6.191406 20.570312 C 6.429688 20.464844 6.566406 20.265625 6.59375 19.996094 C 6.621094 19.691406 6.464844 19.484375 6.246094 19.304688 C 5.835938 18.96875 5.421875 18.636719 5.011719 18.304688 C 4.644531 18.003906 4.273438 17.707031 3.910156 17.402344 C 3.589844 17.140625 3.273438 16.871094 2.957031 16.605469 C 2.59375 16.300781 2.226562 16 1.867188 15.6875 C 1.5 15.375 1.160156 15.039062 0.78125 14.742188 C 0.457031 14.484375 0.3125 14.160156 0.28125 13.765625 C 0.25 13.359375 0.191406 12.957031 0.171875 12.550781 C 0.140625 11.894531 0.121094 11.238281 0.117188 10.585938 C 0.113281 10.1875 0.152344 9.789062 0.171875 9.355469 C 0.3125 9.453125 0.425781 9.53125 0.53125 9.613281 C 1.023438 9.992188 1.511719 10.371094 2 10.75 C 2.417969 11.074219 2.835938 11.398438 3.257812 11.722656 C 3.644531 12.015625 4.035156 12.308594 4.421875 12.605469 C 4.824219 12.914062 5.226562 13.226562 5.625 13.535156 C 6.417969 14.144531 7.214844 14.75 8.003906 15.359375 C 8.511719 15.753906 9.011719 16.160156 9.523438 16.546875 C 9.839844 16.789062 10.171875 16.8125 10.496094 16.554688 C 10.808594 16.300781 10.851562 15.761719 10.464844 15.46875 C 9.996094 15.109375 9.539062 14.738281 9.074219 14.371094 C 8.613281 14.011719 8.152344 13.652344 7.695312 13.285156 C 7.222656 12.90625 6.75 12.515625 6.277344 12.136719 C 5.902344 11.835938 5.523438 11.539062 5.152344 11.238281 C 4.769531 10.929688 4.386719 10.617188 4.003906 10.304688 C 3.539062 9.929688 3.070312 9.550781 2.609375 9.171875 C 2.285156 8.90625 1.96875 8.632812 1.648438 8.363281 C 1.296875 8.070312 0.953125 7.773438 0.59375 7.492188 C 0.351562 7.300781 0.289062 7.03125 0.226562 6.761719 C 0.109375 6.257812 0.0703125 5.738281 0.0390625 5.214844 C 0.0273438 4.367188 0.0273438 3.527344 0.0390625 2.664062 C 0.0585938 2.300781 0.0742188 1.960938 0.0859375 1.617188 C 0.09375 1.410156 0.101562 1.203125 0.117188 0.992188 C 0.140625 0.671875 0.171875 0.351562 0.199219 0.0273438 C 0.226562 0.0273438 0.257812 0.0273438 0.304688 0.0351562 C 0.40625 0.113281 0.492188 0.183594 0.585938 0.246094 C 1.003906 0.539062 1.425781 0.828125 1.84375 1.125 C 2.417969 1.535156 2.992188 1.945312 3.5625 2.363281 C 4.125 2.773438 4.683594 3.1875 5.242188 3.605469 C 5.773438 3.996094 6.300781 4.390625 6.828125 4.785156 C 7.316406 5.152344 7.796875 5.519531 8.28125 5.890625 C 8.679688 6.195312 9.078125 6.503906 9.472656 6.816406 C 9.882812 7.140625 10.289062 7.472656 10.699219 7.800781 C 11.121094 8.136719 11.546875 8.46875 11.964844 8.808594 C 12.4375 9.191406 12.902344 9.585938 13.375 9.972656 C 13.808594 10.332031 14.246094 10.683594 14.679688 11.046875 C 15.113281 11.410156 15.542969 11.78125 15.976562 12.152344 C 16.335938 12.460938 16.691406 12.773438 17.050781 13.082031 C 17.304688 13.300781 17.566406 13.511719 17.816406 13.734375 C 17.972656 13.871094 18.117188 14.023438 18.265625 14.179688 C 18.257812 14.304688 18.25 14.417969 18.234375 14.53125 C 17.894531 14.621094 17.5625 14.691406 17.242188 14.804688 C 15.816406 15.308594 14.59375 16.136719 13.507812 17.167969 C 12.269531 18.34375 11.296875 19.714844 10.503906 21.210938 C 9.546875 23.015625 8.875 24.925781 8.394531 26.902344 C 8.363281 27.035156 8.367188 27.191406 8.390625 27.332031 C 8.472656 27.796875 8.707031 28.171875 9.074219 28.476562 C 10.636719 29.773438 12.1875 31.085938 13.765625 32.367188 C 15.226562 33.550781 16.734375 34.671875 18.304688 35.707031 C 18.570312 35.886719 18.5 35.886719 18.78125 35.703125 C 20.203125 34.761719 21.566406 33.738281 22.910156 32.6875 C 24.660156 31.3125 26.375 29.894531 28.046875 28.429688 C 28.59375 27.949219 28.800781 27.359375 28.617188 26.652344 C 28.214844 25.085938 27.699219 23.5625 27.007812 22.097656 C 26.132812 20.242188 25.023438 18.550781 23.519531 17.128906 C 22.660156 16.316406 21.710938 15.632812 20.636719 15.128906 C 20.054688 14.855469 19.457031 14.628906 18.8125 14.519531 C 18.8125 14.40625 18.800781 14.308594 18.816406 14.210938 C 18.824219 14.15625 18.855469 14.089844 18.898438 14.050781 C 19.1875 13.789062 19.484375 13.535156 19.78125 13.277344 C 20.039062 13.050781 20.296875 12.820312 20.558594 12.597656 C 20.929688 12.277344 21.304688 11.96875 21.679688 11.652344 C 21.976562 11.398438 22.269531 11.136719 22.570312 10.886719 C 23.074219 10.460938 23.585938 10.042969 24.09375 9.625 C 24.480469 9.304688 24.867188 8.984375 25.261719 8.671875 C 25.820312 8.222656 26.382812 7.78125 26.941406 7.335938 C 27.515625 6.882812 28.082031 6.425781 28.660156 5.980469 C 29.257812 5.515625 29.863281 5.0625 30.46875 4.605469 C 30.953125 4.238281 31.4375 3.867188 31.925781 3.503906 C 32.449219 3.117188 32.976562 2.738281 33.503906 2.355469 C 34.039062 1.96875 34.574219 1.585938 35.113281 1.203125 C 35.664062 0.808594 36.21875 0.417969 36.773438 0.0273438 C 36.792969 0.0273438 36.816406 0.0273438 36.847656 0.0390625 C 36.867188 0.144531 36.878906 0.234375 36.886719 0.328125 C 36.90625 0.730469 36.925781 1.132812 36.949219 1.535156 C 36.964844 1.835938 36.980469 2.132812 37 2.433594 C 37.003906 2.460938 37.019531 2.492188 37.027344 2.519531 C 37.027344 3.445312 37.027344 4.371094 37.027344 5.308594 Z M 37.027344 5.308594 "/>
<path style=" stroke:none;fill-rule:nonzero;fill:rgb(27.843139%,43.921569%,29.803923%);fill-opacity:1;" d="M 18.269531 14.167969 C 18.117188 14.023438 17.972656 13.871094 17.816406 13.734375 C 17.566406 13.511719 17.304688 13.300781 17.050781 13.082031 C 16.691406 12.773438 16.335938 12.460938 15.976562 12.152344 C 15.542969 11.78125 15.113281 11.410156 14.679688 11.046875 C 14.246094 10.683594 13.808594 10.332031 13.375 9.972656 C 12.902344 9.585938 12.4375 9.191406 11.964844 8.808594 C 11.546875 8.46875 11.121094 8.136719 10.699219 7.800781 C 10.289062 7.472656 9.882812 7.140625 9.472656 6.816406 C 9.078125 6.503906 8.679688 6.195312 8.28125 5.890625 C 7.796875 5.519531 7.316406 5.152344 6.828125 4.785156 C 6.300781 4.390625 5.773438 3.996094 5.242188 3.605469 C 4.683594 3.1875 4.125 2.773438 3.5625 2.363281 C 2.992188 1.945312 2.417969 1.535156 1.84375 1.125 C 1.425781 0.828125 1.003906 0.539062 0.585938 0.246094 C 0.492188 0.183594 0.40625 0.113281 0.316406 0.0351562 C 12.457031 0.0273438 24.601562 0.0273438 36.761719 0.0273438 C 36.21875 0.417969 35.664062 0.808594 35.113281 1.203125 C 34.574219 1.585938 34.039062 1.96875 33.503906 2.355469 C 32.976562 2.738281 32.449219 3.117188 31.925781 3.503906 C 31.4375 3.867188 30.953125 4.238281 30.46875 4.605469 C 29.863281 5.0625 29.257812 5.515625 28.660156 5.980469 C 28.082031 6.425781 27.515625 6.882812 26.941406 7.335938 C 26.382812 7.78125 25.820312 8.222656 25.261719 8.671875 C 24.867188 8.984375 24.480469 9.304688 24.09375 9.625 C 23.585938 10.042969 23.074219 10.460938 22.570312 10.886719 C 22.269531 11.136719 21.976562 11.398438 21.679688 11.652344 C 21.304688 11.96875 20.929688 12.277344 20.558594 12.597656 C 20.296875 12.820312 20.039062 13.050781 19.78125 13.277344 C 19.484375 13.535156 19.1875 13.789062 18.898438 14.050781 C 18.855469 14.089844 18.824219 14.15625 18.816406 14.210938 C 18.800781 14.308594 18.8125 14.40625 18.8125 14.53125 C 18.8125 14.585938 18.8125 14.613281 18.8125 14.640625 C 18.8125 18.25 18.8125 21.855469 18.8125 25.460938 C 18.8125 25.484375 18.804688 25.511719 18.8125 25.53125 C 18.835938 25.574219 18.863281 25.621094 18.902344 25.648438 C 19.039062 25.765625 19.199219 25.859375 19.316406 25.992188 C 19.5625 26.269531 19.554688 26.875 19.242188 27.191406 C 18.980469 27.457031 18.671875 27.550781 18.332031 27.484375 C 17.929688 27.402344 17.648438 27.152344 17.582031 26.71875 C 17.53125 26.390625 17.597656 26.097656 17.847656 25.867188 C 17.964844 25.757812 18.113281 25.6875 18.253906 25.589844 C 18.265625 25.515625 18.273438 25.449219 18.273438 25.386719 C 18.273438 21.707031 18.273438 18.027344 18.273438 14.351562 C 18.273438 14.289062 18.269531 14.230469 18.269531 14.167969 Z M 18.269531 14.167969 "/>
<path style=" stroke:none;fill-rule:nonzero;fill:rgb(0%,0%,0%);fill-opacity:1;" d="M 11.640625 56.027344 C 11.5625 55.933594 11.492188 55.839844 11.441406 55.738281 C 11.425781 55.699219 11.441406 55.609375 11.472656 55.589844 C 11.632812 55.492188 11.640625 55.328125 11.652344 55.175781 C 11.671875 54.855469 11.664062 54.535156 11.683594 54.214844 C 11.710938 53.789062 11.808594 53.375 11.992188 52.988281 C 12.003906 52.964844 12.023438 52.945312 12.058594 52.898438 C 12.078125 52.953125 12.097656 52.988281 12.097656 53.019531 C 12.074219 53.371094 12.050781 53.722656 12.023438 54.074219 C 11.996094 54.398438 11.980469 54.730469 11.929688 55.050781 C 11.902344 55.230469 11.808594 55.394531 11.742188 55.566406 C 12.253906 55.578125 12.402344 55.210938 12.417969 54.820312 C 12.429688 54.429688 12.429688 54.042969 12.449219 53.65625 C 12.460938 53.515625 12.511719 53.378906 12.554688 53.242188 C 12.617188 53.046875 12.691406 52.859375 12.761719 52.667969 C 12.773438 52.636719 12.804688 52.609375 12.824219 52.578125 C 12.839844 52.585938 12.855469 52.589844 12.871094 52.59375 C 12.859375 52.769531 12.839844 52.945312 12.839844 53.125 C 12.835938 53.457031 12.8125 53.792969 12.855469 54.121094 C 12.90625 54.53125 13.429688 54.566406 13.695312 54.328125 C 13.742188 54.285156 13.785156 54.230469 13.835938 54.195312 C 13.882812 54.160156 13.953125 54.117188 14 54.128906 C 14.21875 54.183594 14.339844 54.046875 14.449219 53.902344 C 14.492188 53.84375 14.527344 53.832031 14.597656 53.820312 C 14.671875 53.808594 14.734375 53.703125 14.796875 53.636719 C 14.84375 53.589844 14.882812 53.535156 14.925781 53.484375 C 14.929688 53.554688 14.953125 53.632812 14.933594 53.699219 C 14.878906 53.851562 14.804688 54.003906 14.738281 54.152344 C 14.730469 54.167969 14.722656 54.183594 14.714844 54.1875 C 14.433594 54.320312 14.246094 54.613281 13.898438 54.636719 C 13.804688 54.644531 13.710938 54.75 13.636719 54.824219 C 13.523438 54.941406 13.445312 55.09375 13.320312 55.195312 C 13.113281 55.367188 12.875 55.34375 12.636719 55.214844 C 12.5 55.535156 12.34375 55.832031 12.027344 56.019531 C 11.898438 56.027344 11.777344 56.027344 11.640625 56.027344 Z M 11.640625 56.027344 "/>
<path style=" stroke:none;fill-rule:nonzero;fill:rgb(27.843139%,43.921569%,29.803923%);fill-opacity:1;" d="M 0.183594 0.0273438 C 0.171875 0.351562 0.140625 0.671875 0.117188 0.992188 C 0.101562 1.203125 0.09375 1.410156 0.0859375 1.617188 C 0.0742188 1.960938 0.0585938 2.300781 0.0390625 2.652344 C 0.0273438 1.78125 0.0273438 0.90625 0.0273438 0.0273438 C 0.0742188 0.0273438 0.121094 0.0273438 0.183594 0.0273438 Z M 0.183594 0.0273438 "/>
<path style=" stroke:none;fill-rule:nonzero;fill:rgb(27.843139%,43.921569%,29.803923%);fill-opacity:1;" d="M 37.027344 2.507812 C 37.019531 2.492188 37.003906 2.460938 37 2.433594 C 36.980469 2.132812 36.964844 1.835938 36.949219 1.535156 C 36.925781 1.132812 36.90625 0.730469 36.886719 0.328125 C 36.878906 0.234375 36.867188 0.144531 36.859375 0.0390625 C 36.914062 0.0273438 36.972656 0.0273438 37.027344 0.0273438 C 37.027344 0.851562 37.027344 1.671875 37.027344 2.507812 Z M 37.027344 2.507812 "/>
<path style=" stroke:none;fill-rule:nonzero;fill:rgb(0%,0%,0%);fill-opacity:1;" d="M 17.054688 51.464844 C 17.667969 51.4375 18.265625 51.414062 18.863281 51.378906 C 19.347656 51.347656 19.824219 51.300781 20.304688 51.273438 C 20.390625 51.269531 20.476562 51.332031 20.5625 51.363281 C 20.5 51.421875 20.449219 51.515625 20.375 51.539062 C 20.15625 51.613281 19.929688 51.671875 19.699219 51.710938 C 19.355469 51.773438 19.007812 51.8125 18.664062 51.859375 C 18.386719 51.898438 18.109375 51.9375 17.832031 51.964844 C 17.660156 51.984375 17.632812 52.011719 17.621094 52.179688 C 17.589844 52.667969 17.535156 53.15625 17.515625 53.644531 C 17.503906 54 17.417969 54.332031 17.28125 54.652344 C 17.234375 54.761719 17.191406 54.882812 17.023438 54.960938 C 17.050781 54.792969 17.078125 54.660156 17.09375 54.53125 C 17.121094 54.296875 17.140625 54.0625 17.171875 53.828125 C 17.230469 53.414062 17.136719 52.980469 17.308594 52.578125 C 17.386719 52.398438 17.453125 52.21875 17.535156 52.019531 C 17.292969 52.03125 17.066406 52.039062 16.839844 52.054688 C 16.605469 52.078125 16.367188 52.128906 16.132812 52.132812 C 15.265625 52.148438 14.398438 52.175781 13.535156 52.15625 C 12.859375 52.144531 12.1875 52.039062 11.527344 51.882812 C 11.472656 51.867188 11.421875 51.84375 11.367188 51.832031 C 11.0625 51.761719 11.019531 51.453125 11.144531 51.246094 C 11.421875 50.792969 11.824219 50.480469 12.320312 50.28125 C 12.410156 50.246094 12.496094 50.203125 12.585938 50.164062 C 12.527344 49.96875 12.527344 49.96875 12.679688 49.816406 C 12.769531 49.730469 12.859375 49.640625 12.949219 49.550781 C 13.050781 49.457031 13.160156 49.445312 13.269531 49.523438 C 13.34375 49.578125 13.417969 49.636719 13.480469 49.707031 C 13.636719 49.875 13.601562 50.09375 13.417969 50.230469 C 13.171875 50.414062 12.878906 50.433594 12.589844 50.484375 C 12.21875 50.550781 11.890625 50.703125 11.597656 51.003906 C 11.710938 51.058594 11.796875 51.117188 11.894531 51.152344 C 12.257812 51.289062 12.632812 51.339844 13.015625 51.382812 C 14.113281 51.511719 15.21875 51.492188 16.324219 51.492188 C 16.5625 51.488281 16.800781 51.472656 17.054688 51.464844 Z M 17.054688 51.464844 "/>
<path style=" stroke:none;fill-rule:nonzero;fill:rgb(0%,0%,0%);fill-opacity:1;" d="M 23.160156 52.210938 C 22.65625 52.722656 22.15625 53.230469 21.65625 53.738281 C 21.945312 53.902344 22.246094 53.976562 22.570312 53.984375 C 22.683594 53.988281 22.765625 53.964844 22.839844 53.875 C 22.929688 53.765625 23.039062 53.714844 23.199219 53.746094 C 23.257812 53.757812 23.34375 53.648438 23.417969 53.589844 C 23.453125 53.566406 23.488281 53.507812 23.511719 53.515625 C 23.648438 53.539062 23.695312 53.457031 23.738281 53.355469 C 23.761719 53.296875 23.777344 53.242188 23.875 53.261719 C 23.957031 53.277344 24.042969 53.132812 24.042969 53.015625 C 24.042969 52.914062 24.042969 52.804688 24.078125 52.710938 C 24.136719 52.546875 24.226562 52.394531 24.304688 52.234375 C 24.324219 52.195312 24.351562 52.15625 24.386719 52.089844 C 24.410156 52.136719 24.4375 52.167969 24.4375 52.195312 C 24.421875 52.429688 24.433594 52.671875 24.378906 52.898438 C 24.292969 53.242188 24.128906 53.546875 23.800781 53.746094 C 23.644531 53.84375 23.519531 53.992188 23.367188 54.101562 C 23.28125 54.164062 23.167969 54.191406 23.070312 54.238281 C 23.007812 54.265625 22.921875 54.289062 22.890625 54.34375 C 22.789062 54.527344 22.640625 54.59375 22.4375 54.570312 C 22.347656 54.558594 22.316406 54.597656 22.289062 54.683594 C 22.175781 55.027344 22.0625 55.375 21.792969 55.636719 C 21.617188 55.808594 21.226562 55.925781 21.03125 55.71875 C 20.929688 55.609375 20.820312 55.464844 20.804688 55.324219 C 20.773438 55.039062 20.78125 54.742188 20.8125 54.457031 C 20.863281 53.992188 20.945312 53.535156 21.019531 53.074219 C 21.074219 52.707031 21.152344 52.347656 21.3125 52.007812 C 21.324219 51.980469 21.363281 51.96875 21.386719 51.945312 C 21.398438 51.984375 21.425781 52.023438 21.421875 52.058594 C 21.363281 52.511719 21.304688 52.964844 21.246094 53.417969 C 21.238281 53.464844 21.246094 53.511719 21.261719 53.570312 C 22.179688 52.640625 23.179688 51.796875 23.984375 50.761719 C 23.988281 51.019531 23.90625 51.242188 23.765625 51.4375 C 23.578125 51.703125 23.367188 51.949219 23.160156 52.210938 M 21.921875 54.71875 C 21.933594 54.695312 21.941406 54.667969 21.957031 54.644531 C 22.039062 54.476562 22.015625 54.398438 21.835938 54.335938 C 21.71875 54.296875 21.59375 54.273438 21.46875 54.265625 C 21.246094 54.253906 21.140625 54.347656 21.132812 54.542969 C 21.121094 54.761719 21.261719 54.949219 21.453125 54.964844 C 21.648438 54.980469 21.785156 54.871094 21.921875 54.71875 Z M 21.921875 54.71875 "/>
<path style=" stroke:none;fill-rule:nonzero;fill:rgb(0%,0%,0%);fill-opacity:1;" d="M 22.1875 50.996094 C 22.152344 50.996094 22.113281 51.003906 22.085938 50.988281 C 21.972656 50.925781 21.863281 50.855469 21.757812 50.777344 C 21.730469 50.753906 21.707031 50.679688 21.71875 50.644531 C 21.804688 50.460938 21.894531 50.277344 21.996094 50.101562 C 22.015625 50.066406 22.109375 50.042969 22.152344 50.058594 C 22.46875 50.171875 22.542969 50.363281 22.421875 50.722656 C 22.496094 50.765625 22.570312 50.804688 22.644531 50.855469 C 22.816406 50.976562 22.875 51.152344 22.789062 51.339844 C 22.738281 51.449219 22.667969 51.550781 22.597656 51.648438 C 22.542969 51.726562 22.464844 51.742188 22.378906 51.679688 C 22.304688 51.625 22.222656 51.582031 22.148438 51.535156 C 22.074219 51.636719 22.007812 51.730469 21.941406 51.824219 C 21.890625 51.894531 21.828125 51.886719 21.761719 51.84375 C 21.65625 51.78125 21.546875 51.730469 21.453125 51.65625 C 21.417969 51.632812 21.394531 51.550781 21.410156 51.515625 C 21.496094 51.332031 21.597656 51.15625 21.6875 50.976562 C 21.726562 50.898438 21.78125 50.886719 21.847656 50.925781 C 21.949219 50.988281 22.050781 51.050781 22.160156 51.121094 C 22.167969 51.105469 22.1875 51.070312 22.210938 51.023438 C 22.222656 51 22.222656 50.984375 22.222656 50.972656 C 22.210938 50.980469 22.199219 50.988281 22.1875 50.996094 Z M 22.1875 50.996094 "/>
<path style=" stroke:none;fill-rule:nonzero;fill:rgb(0%,0%,0%);fill-opacity:1;" d="M 20.253906 55.042969 C 20.121094 55.355469 19.960938 55.636719 19.652344 55.792969 C 19.519531 55.863281 19.375 55.859375 19.253906 55.773438 C 19.125 55.679688 19.09375 55.527344 19.132812 55.382812 C 19.171875 55.234375 19.25 55.09375 19.3125 54.953125 C 19.339844 54.886719 19.425781 54.835938 19.355469 54.746094 C 19.339844 54.730469 19.367188 54.675781 19.382812 54.644531 C 19.480469 54.457031 19.585938 54.269531 19.683594 54.078125 C 19.726562 53.992188 19.785156 53.964844 19.871094 54.019531 C 19.953125 54.070312 20.042969 54.113281 20.117188 54.175781 C 20.378906 54.382812 20.398438 54.648438 20.253906 55.042969 M 19.476562 55.023438 C 19.457031 55.066406 19.441406 55.109375 19.421875 55.152344 C 19.382812 55.242188 19.433594 55.300781 19.511719 55.320312 C 19.652344 55.351562 19.792969 55.339844 19.894531 55.21875 C 19.917969 55.195312 19.9375 55.15625 19.933594 55.125 C 19.933594 55.039062 19.753906 54.863281 19.65625 54.871094 C 19.59375 54.878906 19.542969 54.960938 19.476562 55.023438 Z M 19.476562 55.023438 "/>
<path style=" stroke:none;fill-rule:nonzero;fill:rgb(0%,0%,0%);fill-opacity:1;" d="M 21.179688 49.832031 C 21.253906 49.789062 21.316406 49.753906 21.390625 49.710938 C 21.445312 49.875 21.335938 49.941406 21.273438 50.027344 C 21.03125 50.367188 20.71875 50.636719 20.308594 50.742188 C 20.097656 50.796875 19.859375 50.785156 19.644531 50.753906 C 19.375 50.71875 19.121094 50.734375 18.875 50.84375 C 18.835938 50.863281 18.789062 50.867188 18.746094 50.878906 C 18.738281 50.867188 18.726562 50.859375 18.71875 50.851562 C 18.75 50.789062 18.769531 50.714844 18.816406 50.664062 C 19.074219 50.378906 19.375 50.15625 19.769531 50.101562 C 19.886719 50.082031 20.015625 50.101562 20.132812 50.125 C 20.53125 50.210938 20.867188 50.082031 21.179688 49.832031 Z M 21.179688 49.832031 "/>
<path style=" stroke:none;fill-rule:nonzero;fill:rgb(0%,0%,0%);fill-opacity:1;" d="M 25.882812 54.042969 C 26.0625 54.34375 26.007812 54.644531 25.894531 54.933594 C 25.820312 55.117188 25.730469 55.300781 25.621094 55.464844 C 25.5625 55.554688 25.449219 55.621094 25.347656 55.667969 C 25.226562 55.730469 25.085938 55.765625 24.953125 55.804688 C 24.921875 55.8125 24.886719 55.800781 24.851562 55.800781 C 24.863281 55.765625 24.859375 55.714844 24.882812 55.695312 C 25 55.589844 25.128906 55.496094 25.246094 55.390625 C 25.347656 55.296875 25.449219 55.195312 25.535156 55.089844 C 25.601562 55.003906 25.59375 54.898438 25.519531 54.820312 C 25.410156 54.703125 25.289062 54.601562 25.179688 54.484375 C 25.148438 54.457031 25.121094 54.390625 25.132812 54.359375 C 25.230469 54.132812 25.339844 53.90625 25.445312 53.679688 C 25.453125 53.667969 25.46875 53.664062 25.507812 53.632812 C 25.628906 53.765625 25.753906 53.898438 25.882812 54.042969 Z M 25.882812 54.042969 "/>
<path style=" stroke:none;fill-rule:nonzero;fill:rgb(0%,0%,0%);fill-opacity:1;" d="M 15.789062 55.613281 C 15.890625 55.515625 15.984375 55.425781 16.078125 55.332031 C 16.167969 55.238281 16.214844 55.128906 16.117188 55.011719 C 16.035156 54.914062 15.949219 54.816406 15.851562 54.734375 C 15.703125 54.613281 15.695312 54.597656 15.773438 54.421875 C 15.847656 54.261719 15.921875 54.101562 15.988281 53.941406 C 16.039062 53.820312 16.109375 53.832031 16.195312 53.898438 C 16.535156 54.164062 16.660156 54.507812 16.542969 54.921875 C 16.460938 55.222656 16.359375 55.523438 16.117188 55.734375 C 15.925781 55.894531 15.683594 55.953125 15.394531 55.976562 C 15.496094 55.792969 15.660156 55.730469 15.789062 55.613281 Z M 15.789062 55.613281 "/>
<path style=" stroke:none;fill-rule:nonzero;fill:rgb(0%,0%,0%);fill-opacity:1;" d="M 19.09375 53.984375 C 19.019531 54.34375 18.90625 54.671875 18.675781 54.945312 C 18.65625 54.9375 18.632812 54.929688 18.613281 54.925781 C 18.632812 54.8125 18.660156 54.703125 18.675781 54.589844 C 18.722656 54.242188 18.789062 53.894531 18.804688 53.546875 C 18.832031 53.015625 18.953125 52.515625 19.207031 52.050781 C 19.226562 52.019531 19.253906 51.992188 19.273438 51.960938 C 19.289062 51.96875 19.304688 51.972656 19.316406 51.976562 C 19.308594 52.078125 19.300781 52.179688 19.289062 52.28125 C 19.253906 52.679688 19.21875 53.074219 19.175781 53.46875 C 19.160156 53.636719 19.125 53.804688 19.09375 53.984375 Z M 19.09375 53.984375 "/>
<path style=" stroke:none;fill-rule:nonzero;fill:rgb(0%,0%,0%);fill-opacity:1;" d="M 24.636719 54.902344 C 24.554688 55.101562 24.476562 55.289062 24.390625 55.472656 C 24.363281 55.53125 24.308594 55.574219 24.265625 55.621094 C 24.25 55.613281 24.234375 55.605469 24.21875 55.597656 C 24.222656 55.550781 24.230469 55.5 24.238281 55.449219 C 24.285156 55.164062 24.335938 54.878906 24.382812 54.589844 C 24.453125 54.167969 24.386719 53.726562 24.550781 53.316406 C 24.628906 53.125 24.707031 52.933594 24.789062 52.742188 C 24.804688 52.707031 24.851562 52.6875 24.914062 52.640625 C 24.914062 52.71875 24.917969 52.757812 24.914062 52.796875 C 24.878906 53.101562 24.847656 53.410156 24.808594 53.714844 C 24.753906 54.109375 24.695312 54.5 24.636719 54.902344 Z M 24.636719 54.902344 "/>
<path style=" stroke:none;fill-rule:nonzero;fill:rgb(0%,0%,0%);fill-opacity:1;" d="M 15.539062 52.257812 C 15.570312 52.234375 15.601562 52.21875 15.628906 52.203125 C 15.640625 52.230469 15.667969 52.257812 15.664062 52.285156 C 15.570312 52.726562 15.597656 53.179688 15.582031 53.628906 C 15.570312 54.066406 15.511719 54.503906 15.324219 54.910156 C 15.277344 55.007812 15.25 55.140625 15.074219 55.183594 C 15.097656 55.050781 15.121094 54.9375 15.136719 54.824219 C 15.167969 54.609375 15.199219 54.394531 15.214844 54.179688 C 15.234375 53.902344 15.230469 53.621094 15.25 53.34375 C 15.265625 53.164062 15.292969 52.980469 15.339844 52.804688 C 15.386719 52.621094 15.46875 52.445312 15.539062 52.257812 Z M 15.539062 52.257812 "/>
<path style=" stroke:none;fill-rule:nonzero;fill:rgb(0%,0%,0%);fill-opacity:1;" d="M 17.839844 55.660156 C 17.566406 55.757812 17.304688 55.859375 17.035156 55.9375 C 16.941406 55.960938 16.921875 55.871094 16.972656 55.8125 C 17.050781 55.726562 17.144531 55.65625 17.230469 55.578125 C 17.421875 55.402344 17.648438 55.253906 17.796875 55.046875 C 17.941406 54.847656 18.007812 54.589844 18.101562 54.355469 C 18.15625 54.214844 18.1875 54.0625 18.238281 53.921875 C 18.253906 53.875 18.300781 53.84375 18.335938 53.800781 C 18.355469 53.8125 18.371094 53.820312 18.390625 53.828125 C 18.378906 53.929688 18.375 54.035156 18.359375 54.132812 C 18.273438 54.574219 18.203125 55.015625 18.007812 55.425781 C 17.972656 55.507812 17.902344 55.578125 17.839844 55.660156 Z M 17.839844 55.660156 "/>
<path style=" stroke:none;fill-rule:nonzero;fill:rgb(0%,0%,0%);fill-opacity:1;" d="M 17.832031 50.335938 C 17.996094 50.582031 17.820312 51.042969 17.539062 51.121094 C 17.5 51.132812 17.445312 51.117188 17.410156 51.09375 C 17.3125 51.027344 17.222656 50.945312 17.125 50.875 C 17.0625 50.824219 17.054688 50.777344 17.101562 50.710938 C 17.21875 50.539062 17.335938 50.367188 17.445312 50.191406 C 17.492188 50.113281 17.542969 50.097656 17.613281 50.152344 C 17.6875 50.210938 17.753906 50.269531 17.832031 50.335938 Z M 17.832031 50.335938 "/>
<path style=" stroke:none;fill-rule:nonzero;fill:rgb(0%,0%,0%);fill-opacity:1;" d="M 25.460938 51.074219 C 25.464844 51.152344 25.488281 51.234375 25.457031 51.28125 C 25.371094 51.421875 25.269531 51.554688 25.164062 51.679688 C 25.109375 51.746094 25.039062 51.765625 24.960938 51.6875 C 24.871094 51.605469 24.757812 51.542969 24.664062 51.460938 C 24.640625 51.4375 24.625 51.367188 24.644531 51.339844 C 24.753906 51.152344 24.875 50.972656 24.996094 50.792969 C 25.035156 50.730469 25.089844 50.695312 25.15625 50.757812 C 25.261719 50.855469 25.359375 50.960938 25.460938 51.074219 Z M 25.460938 51.074219 "/>
<path style=" stroke:none;fill-rule:nonzero;fill:rgb(0%,0%,0%);fill-opacity:1;" d="M 22.695312 51.8125 C 23 51.53125 23.234375 51.195312 23.558594 50.945312 C 23.570312 50.953125 23.585938 50.964844 23.597656 50.972656 C 23.585938 51.019531 23.585938 51.078125 23.554688 51.113281 C 23.277344 51.414062 22.996094 51.710938 22.714844 52.003906 C 22.699219 52.019531 22.671875 52.015625 22.613281 52.027344 C 22.644531 51.945312 22.667969 51.882812 22.695312 51.8125 Z M 22.695312 51.8125 "/>
<path style=" stroke:none;fill-rule:nonzero;fill:rgb(5.882353%,45.882353%,73.725492%);fill-opacity:1;" d="M 18.246094 25.597656 C 18.113281 25.6875 17.964844 25.757812 17.847656 25.867188 C 17.597656 26.097656 17.53125 26.390625 17.582031 26.71875 C 17.648438 27.152344 17.929688 27.402344 18.332031 27.484375 C 18.671875 27.550781 18.980469 27.457031 19.242188 27.191406 C 19.554688 26.875 19.5625 26.269531 19.316406 25.992188 C 19.199219 25.859375 19.039062 25.765625 18.902344 25.648438 C 18.863281 25.621094 18.835938 25.574219 18.8125 25.53125 C 18.804688 25.511719 18.8125 25.484375 18.8125 25.460938 C 18.8125 21.855469 18.8125 18.25 18.8125 14.640625 C 18.8125 14.613281 18.8125 14.585938 18.8125 14.542969 C 19.457031 14.628906 20.054688 14.855469 20.636719 15.128906 C 21.710938 15.632812 22.660156 16.316406 23.519531 17.128906 C 25.023438 18.550781 26.132812 20.242188 27.007812 22.097656 C 27.699219 23.5625 28.214844 25.085938 28.617188 26.652344 C 28.800781 27.359375 28.59375 27.949219 28.046875 28.429688 C 26.375 29.894531 24.660156 31.3125 22.910156 32.6875 C 21.566406 33.738281 20.203125 34.761719 18.78125 35.703125 C 18.5 35.886719 18.570312 35.886719 18.304688 35.707031 C 16.734375 34.671875 15.226562 33.550781 13.765625 32.367188 C 12.1875 31.085938 10.636719 29.773438 9.074219 28.476562 C 8.707031 28.171875 8.472656 27.796875 8.390625 27.332031 C 8.367188 27.191406 8.363281 27.035156 8.394531 26.902344 C 8.875 24.925781 9.546875 23.015625 10.503906 21.210938 C 11.296875 19.714844 12.269531 18.34375 13.507812 17.167969 C 14.59375 16.136719 15.816406 15.308594 17.242188 14.804688 C 17.5625 14.691406 17.894531 14.621094 18.234375 14.546875 C 18.246094 18.238281 18.246094 21.917969 18.246094 25.597656 Z M 18.246094 25.597656 "/>
<path style=" stroke:none;fill-rule:nonzero;fill:rgb(9.803922%,55.29412%,80.000001%);fill-opacity:1;" d="M 18.253906 25.589844 C 18.246094 21.917969 18.246094 18.238281 18.246094 14.542969 C 18.25 14.417969 18.257812 14.304688 18.265625 14.179688 C 18.269531 14.230469 18.273438 14.289062 18.273438 14.351562 C 18.273438 18.027344 18.273438 21.707031 18.273438 25.386719 C 18.273438 25.449219 18.265625 25.515625 18.253906 25.589844 Z M 18.253906 25.589844 "/>
<path style=" stroke:none;fill-rule:nonzero;fill:rgb(27.843139%,43.921569%,29.803923%);fill-opacity:1;" d="M 21.914062 54.726562 C 21.785156 54.871094 21.648438 54.980469 21.453125 54.964844 C 21.261719 54.949219 21.121094 54.761719 21.132812 54.542969 C 21.140625 54.347656 21.246094 54.253906 21.46875 54.265625 C 21.59375 54.273438 21.71875 54.296875 21.835938 54.335938 C 22.015625 54.398438 22.039062 54.476562 21.957031 54.644531 C 21.941406 54.667969 21.933594 54.695312 21.914062 54.726562 Z M 21.914062 54.726562 "/>
<path style=" stroke:none;fill-rule:nonzero;fill:rgb(27.843139%,43.921569%,29.803923%);fill-opacity:1;" d="M 22.191406 51 C 22.199219 50.988281 22.210938 50.980469 22.222656 50.972656 C 22.222656 50.984375 22.222656 51 22.214844 51.015625 C 22.203125 51.015625 22.203125 51.011719 22.191406 51 Z M 22.191406 51 "/>
<path style=" stroke:none;fill-rule:nonzero;fill:rgb(27.843139%,43.921569%,29.803923%);fill-opacity:1;" d="M 19.480469 55.015625 C 19.542969 54.960938 19.59375 54.878906 19.65625 54.871094 C 19.753906 54.863281 19.933594 55.039062 19.933594 55.125 C 19.9375 55.15625 19.917969 55.195312 19.894531 55.21875 C 19.792969 55.339844 19.652344 55.351562 19.511719 55.320312 C 19.433594 55.300781 19.382812 55.242188 19.421875 55.152344 C 19.441406 55.109375 19.457031 55.066406 19.480469 55.015625 Z M 19.480469 55.015625 "/>
</g>
</svg>
